<?xml version="1.0" standalone="no"?>
<!DOCTYPE svg PUBLIC "-//W3C//DTD SVG 20010904//EN"
 "http://www.w3.org/TR/2001/REC-SVG-20010904/DTD/svg10.dtd">
<svg version="1.0" xmlns="http://www.w3.org/2000/svg"
 width="840.000000pt" height="859.000000pt" viewBox="0 0 840.000000 859.000000"
 preserveAspectRatio="xMidYMid meet">

<g transform="translate(0.000000,859.000000) scale(0.100000,-0.100000)"
fill="#000000" stroke="none">
<path d="M5090 6943 c-14 -3 -79 -28 -145 -55 -187 -78 -268 -106 -329 -113
-50 -6 -56 -5 -56 12 0 14 -2 15 -9 4 -6 -9 -10 -10 -12 -2 -6 16 -235 -80
-916 -383 -301 -134 -629 -280 -728 -324 l-180 -79 -110 7 c-142 9 -382 -5
-504 -30 -256 -54 -434 -141 -558 -274 -60 -64 -149 -200 -178 -274 l-16 -40
-432 -192 c-497 -222 -714 -325 -774 -369 -44 -32 -80 -77 -70 -88 4 -3 58 17
120 46 63 28 145 62 183 75 38 14 87 32 109 41 87 36 12 -5 -125 -69 -80 -37
-166 -83 -192 -102 -75 -54 -75 -103 1 -124 63 -18 416 -94 865 -185 93 -19
170 -36 172 -37 1 -2 -4 -39 -12 -83 -29 -165 -47 -402 -47 -650 -1 -248 7
-357 47 -605 8 -47 17 -148 21 -225 3 -78 17 -202 31 -280 53 -289 55 -459 7
-547 -14 -26 -52 -73 -83 -103 -56 -52 -57 -55 -39 -71 18 -16 21 -16 46 7 19
18 25 20 20 7 -4 -11 0 -21 11 -28 16 -9 15 -12 -5 -29 -22 -18 -22 -19 -3
-36 19 -17 19 -19 4 -37 -16 -17 -16 -19 0 -37 12 -13 14 -21 6 -26 -8 -5 -6
-13 6 -26 16 -18 18 -18 37 -2 19 17 20 17 14 1 -4 -12 0 -21 13 -28 27 -14
28 -14 50 30 34 66 55 46 26 -25 -13 -30 -13 -35 5 -51 18 -16 19 -15 36 14
16 29 21 31 56 25 35 -5 38 -4 50 26 9 25 16 31 39 29 22 -2 27 -6 23 -20 -4
-10 1 -21 13 -27 25 -13 35 -2 53 58 7 24 15 39 17 32 2 -6 15 -11 29 -11 25
0 25 2 20 45 -4 25 -10 57 -13 72 -5 22 -4 26 6 16 19 -17 64 5 48 24 -8 10
-6 19 11 36 l21 23 -25 24 c-50 47 -82 137 -134 370 -82 370 -88 473 -41 707
69 344 99 645 117 1171 2 72 8 132 12 132 10 0 228 -48 254 -56 16 -5 17 -26
17 -257 0 -209 3 -260 17 -297 10 -27 18 -88 21 -152 4 -92 2 -110 -13 -125
-14 -14 -17 -30 -13 -89 4 -60 10 -81 38 -124 126 -196 526 -364 1365 -574
539 -135 1108 -249 1374 -276 217 -21 380 -24 473 -6 196 37 380 119 605 270
338 226 600 468 674 623 27 57 30 73 29 151 -1 48 2 259 6 469 l7 381 111 21
c61 11 253 45 426 76 173 31 439 79 590 106 151 28 311 56 355 64 158 28 231
46 275 68 91 45 90 120 -3 202 -42 37 -872 660 -2212 1660 -316 236 -415 298
-415 261 0 -9 -5 -16 -11 -16 -5 0 -7 -4 -4 -10 3 -5 1 -10 -5 -10 -22 0 -77
34 -215 133 -77 55 -163 112 -191 128 -50 29 -117 42 -164 32z m-2602 -980
c-15 -2 -42 -2 -60 0 -18 2 -6 4 27 4 33 0 48 -2 33 -4z m-175 -10 c-7 -2 -19
-2 -25 0 -7 3 -2 5 12 5 14 0 19 -2 13 -5z m297 3 c0 -9 -30 -14 -35 -6 -4 6
3 10 14 10 12 0 21 -2 21 -4z m-387 -13 c-7 -2 -19 -2 -25 0 -7 3 -2 5 12 5
14 0 19 -2 13 -5z m-56 -9 c-3 -3 -12 -4 -19 -1 -8 3 -5 6 6 6 11 1 17 -2 13
-5z m-40 -10 c-3 -3 -12 -4 -19 -1 -8 3 -5 6 6 6 11 1 17 -2 13 -5z m423 2 c0
-2 -9 -6 -20 -9 -11 -3 -18 -1 -14 4 5 9 34 13 34 5z m-301 -131 c-20 -20
-629 -278 -637 -270 -11 11 64 108 105 136 74 51 212 111 287 124 67 13 255
20 245 10z m-589 -59 c0 -2 -8 -10 -17 -17 -16 -13 -17 -12 -4 4 13 16 21 21
21 13z m-40 -29 c0 -1 -28 -29 -62 -62 l-63 -60 60 63 c55 58 65 67 65 59z
m-120 -131 c0 -2 -8 -10 -17 -17 -16 -13 -17 -12 -4 4 13 16 21 21 21 13z
m-133 -268 c-3 -8 -6 -5 -6 6 -1 11 2 17 5 13 3 -3 4 -12 1 -19z m201 -65 c3
-28 0 -33 -17 -33 -21 0 -21 -4 -21 -241 0 -219 -2 -243 -17 -255 -10 -7 -25
-14 -34 -14 -29 0 -69 25 -70 45 -1 11 -2 112 -3 225 -4 262 0 240 -36 240
l-30 0 0 -245 c0 -205 -2 -245 -14 -245 -12 0 -15 46 -18 273 -2 149 -2 276 0
280 2 4 61 6 130 5 l127 -3 3 -32z m-62 -568 c19 -14 19 -14 -1 -16 -11 -1
-32 -1 -47 0 -26 2 -27 0 -34 -69 -4 -39 -9 -68 -12 -66 -2 3 -1 35 3 71 6 57
10 67 33 80 34 18 34 18 58 0z m3609 -135 c3 -5 1 -10 -4 -10 -6 0 -11 5 -11
10 0 6 2 10 4 10 3 0 8 -4 11 -10z m-13 -44 c7 28 53 26 54 -2 1 -11 7 -30 13
-43 7 -12 14 -32 16 -44 40 -246 42 -278 51 -772 6 -320 4 -384 -10 -474 -9
-57 -26 -123 -36 -147 -11 -24 -20 -46 -20 -49 0 -12 -41 -65 -51 -65 -17 0
-43 39 -66 102 -38 102 -54 298 -48 598 7 374 14 556 25 635 5 39 12 88 14
110 5 40 13 78 16 83 3 3 5 11 15 57 8 36 9 38 15 15 6 -24 6 -24 12 -4z
m-3695 -38 c-2 -13 -4 -5 -4 17 -1 22 1 32 4 23 2 -10 2 -28 0 -40z m-10 -80
c-2 -13 -4 -5 -4 17 -1 22 1 32 4 23 2 -10 2 -28 0 -40z m-13 -117 c-3 -40 -9
-70 -11 -67 -3 3 -2 37 2 76 4 39 9 69 12 67 2 -3 1 -37 -3 -76z m-17 -143
c-2 -13 -4 -3 -4 22 0 25 2 35 4 23 2 -13 2 -33 0 -45z m-10 -90 c-2 -13 -4
-3 -4 22 0 25 2 35 4 23 2 -13 2 -33 0 -45z m-10 -200 c-2 -29 -3 -6 -3 52 0
58 1 81 3 53 2 -29 2 -77 0 -105z m40 -60 c-3 -8 -6 -5 -6 6 -1 11 2 17 5 13
3 -3 4 -12 1 -19z m-40 -195 c-2 -32 -3 -8 -3 52 0 61 1 87 3 58 2 -29 2 -78
0 -110z m10 -150 c-2 -16 -4 -5 -4 22 0 28 2 40 4 28 2 -13 2 -35 0 -50z m10
-95 c-2 -13 -4 -3 -4 22 0 25 2 35 4 23 2 -13 2 -33 0 -45z m21 -138 c0 -16
-3 -10 -9 15 -4 22 -8 54 -7 70 0 22 3 19 9 -15 4 -25 7 -56 7 -70z m9 -67
c-3 -10 -5 -4 -5 12 0 17 2 24 5 18 2 -7 2 -21 0 -30z m10 -60 c-3 -10 -5 -4
-5 12 0 17 2 24 5 18 2 -7 2 -21 0 -30z m21 -118 c-1 -31 -16 35 -16 70 0 25
2 24 9 -10 4 -22 8 -49 7 -60z m9 -72 c-3 -10 -5 -2 -5 17 0 19 2 27 5 18 2
-10 2 -26 0 -35z m10 -70 c-3 -10 -5 -2 -5 17 0 19 2 27 5 18 2 -10 2 -26 0
-35z m10 -70 c-3 -10 -5 -2 -5 17 0 19 2 27 5 18 2 -10 2 -26 0 -35z m10 -70
c-3 -10 -5 -2 -5 17 0 19 2 27 5 18 2 -10 2 -26 0 -35z m10 -85 c-2 -13 -4 -5
-4 17 -1 22 1 32 4 23 2 -10 2 -28 0 -40z m3727 23 c10 -16 -75 -33 -128 -26
-62 9 -76 16 -50 26 26 11 172 11 178 0z m-3706 -201 c-1 -41 -2 -40 -8 15 -4
33 -8 78 -8 100 1 34 2 32 8 -15 5 -30 8 -75 8 -100z m9 -157 c-2 -21 -4 -6
-4 32 0 39 2 55 4 38 2 -18 2 -50 0 -70z m10 -330 c-1 -54 -3 -10 -3 97 0 107
2 151 3 98 2 -54 2 -142 0 -195z m63 -244 c-10 -22 -10 -21 -5 10 3 18 6 68 7
110 l2 76 3 -86 c2 -47 -1 -96 -7 -110z m-93 109 c-3 -7 -5 -2 -5 12 0 14 2
19 5 13 2 -7 2 -19 0 -25z m8 -74 c-23 -103 -28 -89 -7 19 9 48 19 81 20 72 2
-9 -4 -50 -13 -91z m-205 12 c0 -2 -8 -10 -17 -17 -16 -13 -17 -12 -4 4 13 16
21 21 21 13z"/>
</g>
</svg>
